<svg width="632" height="339" viewBox="0 0 632 339" xmlns="http://www.w3.org/2000/svg"><title>wave-logo-new</title><g fill-rule="nonzero" fill="none"><path d="M575.503 246.818c3.494-2.81 7.747-3.495 14.13-3.723 5.028-.179 11.7 1.888 14.854 4.992 2.913 2.962 4.72 7.705 5.17 13.376l-40.77-.057c1.063-8.433 3.316-11.933 6.616-14.588zm13.423 72.51s20.403.903 34.189-10c1.004-.828 4.083-3.343 5.838-5.564.79-1.214 1.324-2.911.371-4.85-1.205-2.463-4.344-5.007-5.612-5.89 0 0-3.103-2.438-6.949-3.14-1.909-.348-2.834.032-5.39 2.406-4.918 4.123-10.404 6.294-16.376 6.294-5.925 0-16.047-2.13-19.703-5.726-3.462-3.125-5.996-7.265-6.304-13.159 0 0 44.307.007 55.528 0 0 0 7.154-.208 7.182-8.132.011-3.516-.087-8.078-.13-8.644-.123-12.37-4.04-22.25-11.637-29.366-7.454-6.965-20.553-11.431-34.786-10.682-4.478.236-9.082.827-13.667 2.454-4.708 1.651-9.008 4.37-12.779 8.081-3.719 3.657-6.794 8.687-9.138 14.939-2.332 6.111-3.517 13.84-3.517 22.973 0 9.517 1.494 17.376 4.047 23.334 2.482 6.289 5.782 11.272 9.857 14.848 2.08 1.719 4.34 3.172 6.585 4.254 9.925 5.236 18.53 5.495 22.391 5.57zM540.014 223.787a13.87 13.87 0 0 0-1.399-.248c-2.98-.38-5.948-.574-8.933-.066-3.87.66-6.438 3.093-7.628 6.803l-1.403 3.455-20.442 50.768c-1.53-3.968-3.063-7.936-4.597-11.904-2.968-7.689-5.937-15.378-8.909-23.067-1.608-4.169-3.296-8.308-4.877-12.489-1.542-4.078-2.91-8.543-6.324-11.49-3.968-3.425-9.605-2.667-14.363-1.766-1.53.29-3.04.96-4.158 2.053-2.233 2.174-2.004 5.402-1.08 8.13 1.139 3.345 2.653 6.61 3.957 9.897a546902.36 546902.36 0 0 0 12.249 30.823c2.146 5.399 4.296 10.798 6.442 16.197 1.74 4.369 3.467 8.741 5.19 13.116.862 2.188 1.723 4.376 2.58 6.564.787 1.997 1.424 3.922 3.036 5.424 2.901 2.706 7.522 2.98 11.28 3.01 3.787.029 8.499-.59 11.048-3.736 1.541-1.899 2.32-4.297 3.126-6.568.894-2.52 1.917-4.995 2.925-7.472 1.688-4.168 3.375-8.336 5.067-12.503l5.834-14.398 5.877-14.499c1.728-4.269 3.459-8.538 5.19-12.808l3.778-9.325c1.352-3.33 3.494-7.416 1.277-10.879-1.083-1.695-2.858-2.582-4.743-3.022M410.357 278.972c-6.853-.027-17.104.462-17.274 9.416-.172 9.084 11.954 10.574 18.567 10.5l.873-.002c7.514-.084 11.628-1.694 13.755-3.026 2.371-1.644 3.68-5.678 3.616-11.323l-.035-5.49-19.502-.075zm-.96-36.04c-3.304.248-6.51 1.28-9.391 2.915a26.5 26.5 0 0 0-4.115 2.902c-1.276 1.087-2.384 2.237-4.086 2.62-3.178.717-6.297-1.186-8.773-2.98-1.24-.9-4.298-3.477-5.443-5.935-.9-1.935-.336-3.6.472-4.782 6.986-8.44 18.395-13.141 28.988-13.961 10.755-.834 23.588-.289 32.869 5.762 7.174 4.676 10.58 14.103 10.826 25.454l.628 59.173c.004.518-.15.941-.284 1.25-1.234 2.806-6.293 3.85-10.25 3.895-3.96.043-9.039-.889-10.327-3.657-.142-.306-.308-.726-.316-1.253l.008-1.95c-1.542 1.545-3.431 2.793-5.64 3.731-3.554 1.59-9.32 2.447-15.542 2.516-10.304-.004-21.97-2.676-27.659-8.014-5.984-5.21-9.088-12.058-9.179-20.322-.087-7.88 3.261-14.552 8.392-19.81 5.116-5.36 12.706-8.2 22.55-8.423l26.394-.296c.067-3.126.593-6.62-.123-9.676-2.007-8.565-12.644-9.71-20-9.16zM365.893 223.879c-10.157-1.819-14.88.972-14.88.972-3.296 1.78-3.95 5.404-3.95 5.404L332.1 283.692l-.399-1.098-1.1-3.032-1.662-4.577-2.081-5.735-2.36-6.502-2.5-6.883c-.83-2.291-1.663-4.583-2.494-6.874l-2.351-6.477-2.067-5.693-1.64-4.518-1.073-2.956c-.556-1.53-1.385-3.062-2.675-4.125-1.509-1.243-3.58-1.722-5.471-2a13.373 13.373 0 0 0-2.188-.148c-4.483.085-7.003 1.351-8.416 2.378-.974.707-1.626 1.754-1.99 2.9l-17.233 54.224-15.974-52.321c-.86-2.818-2.557-5.062-5.41-6.014-2.346-.783-4.873-1.008-7.331-.974-2.043.027-4.08.252-6.09.612 0 0-8.426 1.166-5.597 9.559.118.385.245.767.368 1.15l.878 2.716 1.314 4.059 1.678 5.179 1.97 6.077 2.19 6.752 2.336 7.206 2.413 7.437 2.415 7.444 2.346 7.23 2.204 6.795 1.991 6.135 1.705 5.253 1.347 4.15c.59 1.818.983 3.757 2.526 5.04 2.168 1.805 5.349 2.412 8.065 2.711 1.237.137 2.481.201 3.726.218 4.09.055 9.33-.123 12.691-2.852 1.736-1.409 2.21-3.725 2.822-5.764l1.063-3.549 2.933-9.792 3.426-11.435 3.217-10.74 2.309-7.707.724-2.42 1.16 3.252 2.929 8.22a70011.824 70011.824 0 0 0 7.91 22.188c.94 2.632 1.83 5.282 2.76 7.917.541 1.536 1.133 3.058 1.69 4.581.53 1.445.923 2.843 1.84 4.115 2.85 3.957 8.484 3.974 12.88 3.93 3.952-.04 10.155-.499 12.341-4.453.732-1.323 1.044-2.949 1.505-4.39a2252.89 2252.89 0 0 0 2.656-8.395c1.569-4.99 3.127-9.985 4.682-14.981 1.763-5.664 3.521-11.33 5.276-16.997a21477.614 21477.614 0 0 0 9.25-29.93c.652-2.115 1.251-4.254 1.958-6.35 2.83-8.393-5.598-9.56-5.598-9.56" fill="#FFF"/><path d="M160.252 309.63c-.955 2.701-15.58 40.843-62.218 24.835 0 0 9.617-3.03 12.779-14.097 1.521-5.325 14.954-49.67 14.954-49.67l.026.006 25.771-86.695c3.448-10.726 15.495-16.537 26.77-12.913l.942.303c11.275 3.625 17.68 15.367 14.232 26.093l-27.709 93.212s-4.592 16.226-5.547 18.926" fill="#76C3FC"/><path d="M97.968 309.697c2.648-6.213 4.58-13.367 6.6-19.715 4.457-14.008 8.365-28.259 12.655-42.318a5241.69 5241.69 0 0 0 5.375-17.703c3.936-12.246-2.069-25.231-13.344-28.856l-.941-.302c-11.246-3.615-23.647 3.396-27.619 15.581l-24.069 80.194c-3.314 10.312-11.13 17.82-20.223 20.732-.708.24-1.427.451-2.167.606-4.65 1.09-9.558.996-14.32-.535l-.942-.303a26.309 26.309 0 0 1-2.178-.834c4.98 7.159 15 14.799 26.726 18.646 13.04 4.277 28.035 2.379 39.27-5.501 7.306-5.125 11.817-11.812 15.177-19.692" fill="#328FF8"/><path d="M15.166 303.313l.94.303c11.276 3.624 23.323-2.186 26.771-12.912l12.758-41.725c3.448-10.727-2.956-22.469-14.232-26.093l-.941-.303c-11.276-3.624-23.323 2.186-26.77 12.913L.933 277.22c-3.448 10.727 2.956 22.468 14.232 26.093" fill="#1F65A6"/><g><path d="M575.503 76.818c3.494-2.81 7.747-3.495 14.13-3.723 5.028-.179 11.7 1.888 14.854 4.992 2.913 2.962 4.72 7.705 5.17 13.376l-40.77-.057c1.063-8.433 3.316-11.933 6.616-14.588zm13.423 72.51s20.403.903 34.189-10c1.004-.828 4.083-3.343 5.838-5.564.79-1.214 1.324-2.911.371-4.85-1.205-2.463-4.344-5.007-5.612-5.89 0 0-3.103-2.438-6.949-3.14-1.909-.348-2.834.032-5.39 2.406-4.918 4.123-10.404 6.294-16.376 6.294-5.925 0-16.047-2.13-19.703-5.726-3.462-3.125-5.996-7.265-6.304-13.159 0 0 44.307.007 55.528 0 0 0 7.154-.208 7.182-8.132.011-3.516-.087-8.078-.13-8.644-.123-12.37-4.04-22.25-11.637-29.366-7.454-6.965-20.553-11.431-34.786-10.682-4.478.236-9.082.827-13.667 2.454-4.708 1.651-9.008 4.37-12.779 8.081-3.719 3.657-6.794 8.687-9.138 14.939-2.332 6.111-3.517 13.84-3.517 22.973 0 9.517 1.494 17.376 4.047 23.334 2.482 6.289 5.782 11.272 9.857 14.848 2.08 1.719 4.34 3.172 6.585 4.254 9.925 5.236 18.53 5.495 22.391 5.57zM540.014 53.787a13.87 13.87 0 0 0-1.399-.248c-2.98-.38-5.948-.574-8.933-.066-3.87.66-6.438 3.093-7.628 6.803l-1.403 3.455-20.442 50.768c-1.53-3.968-3.063-7.936-4.597-11.904-2.968-7.689-5.937-15.378-8.909-23.067-1.608-4.169-3.296-8.308-4.877-12.489-1.542-4.078-2.91-8.543-6.324-11.49-3.968-3.425-9.605-2.667-14.363-1.766-1.53.29-3.04.96-4.158 2.053-2.233 2.174-2.004 5.402-1.08 8.13 1.139 3.345 2.653 6.61 3.957 9.897a546902.36 546902.36 0 0 0 12.249 30.823c2.146 5.399 4.296 10.798 6.442 16.197 1.74 4.369 3.467 8.741 5.19 13.116.862 2.188 1.723 4.376 2.58 6.564.787 1.997 1.424 3.922 3.036 5.424 2.901 2.706 7.522 2.98 11.28 3.01 3.787.029 8.499-.59 11.048-3.736 1.541-1.899 2.32-4.297 3.126-6.568.894-2.52 1.917-4.995 2.925-7.472 1.688-4.168 3.375-8.336 5.067-12.503l5.834-14.398 5.877-14.499c1.728-4.269 3.459-8.538 5.19-12.808l3.778-9.325c1.352-3.33 3.494-7.416 1.277-10.879-1.083-1.695-2.858-2.582-4.743-3.022M410.357 108.972c-6.853-.027-17.104.462-17.274 9.416-.172 9.084 11.954 10.574 18.567 10.5l.873-.002c7.514-.084 11.628-1.694 13.755-3.026 2.371-1.644 3.68-5.678 3.616-11.323l-.035-5.49-19.502-.075zm-.96-36.04c-3.304.248-6.51 1.28-9.391 2.915a26.5 26.5 0 0 0-4.115 2.902c-1.276 1.087-2.384 2.237-4.086 2.62-3.178.717-6.297-1.186-8.773-2.98-1.24-.9-4.298-3.477-5.443-5.935-.9-1.935-.336-3.6.472-4.782 6.986-8.44 18.395-13.141 28.988-13.961 10.755-.834 23.588-.289 32.869 5.762 7.174 4.676 10.58 14.103 10.826 25.454l.628 59.173c.004.518-.15.941-.284 1.25-1.234 2.806-6.293 3.85-10.25 3.895-3.96.043-9.039-.889-10.327-3.657-.142-.306-.308-.726-.316-1.253l.008-1.95c-1.542 1.545-3.431 2.793-5.64 3.731-3.554 1.59-9.32 2.447-15.542 2.516-10.304-.004-21.97-2.676-27.659-8.014-5.984-5.21-9.088-12.058-9.179-20.322-.087-7.88 3.261-14.552 8.392-19.81 5.116-5.36 12.706-8.2 22.55-8.423l26.394-.296c.067-3.126.593-6.62-.123-9.676-2.007-8.565-12.644-9.71-20-9.16zM365.893 53.879c-10.157-1.819-14.88.972-14.88.972-3.296 1.78-3.95 5.404-3.95 5.404L332.1 113.692l-.399-1.098-1.1-3.032-1.662-4.577-2.081-5.735-2.36-6.502-2.5-6.883c-.83-2.291-1.663-4.583-2.494-6.874l-2.351-6.477-2.067-5.693-1.64-4.518-1.073-2.956c-.556-1.53-1.385-3.062-2.675-4.125-1.509-1.243-3.58-1.722-5.471-2a13.373 13.373 0 0 0-2.188-.148c-4.483.085-7.003 1.351-8.416 2.378-.974.707-1.626 1.754-1.99 2.9l-17.233 54.224-15.974-52.321c-.86-2.818-2.557-5.062-5.41-6.014-2.346-.783-4.873-1.008-7.331-.974-2.043.027-4.08.252-6.09.612 0 0-8.426 1.166-5.597 9.559.118.385.245.767.368 1.15l.878 2.716 1.314 4.059 1.678 5.179 1.97 6.077 2.19 6.752 2.336 7.206 2.413 7.437 2.415 7.444 2.346 7.23 2.204 6.795 1.991 6.135 1.705 5.253 1.347 4.15c.59 1.818.983 3.757 2.526 5.04 2.168 1.805 5.349 2.412 8.065 2.711 1.237.137 2.481.201 3.726.218 4.09.055 9.33-.123 12.691-2.852 1.736-1.409 2.21-3.725 2.822-5.764l1.063-3.549 2.933-9.792 3.426-11.435 3.217-10.74 2.309-7.707.724-2.42 1.16 3.252 2.929 8.22a70011.824 70011.824 0 0 0 7.91 22.188c.94 2.632 1.83 5.282 2.76 7.917.541 1.536 1.133 3.058 1.69 4.581.53 1.445.923 2.843 1.84 4.115 2.85 3.957 8.484 3.974 12.88 3.93 3.952-.04 10.155-.499 12.341-4.453.732-1.323 1.044-2.949 1.505-4.39a2252.89 2252.89 0 0 0 2.656-8.395c1.569-4.99 3.127-9.985 4.682-14.981 1.763-5.664 3.521-11.33 5.276-16.997a21477.614 21477.614 0 0 0 9.25-29.93c.652-2.115 1.251-4.254 1.958-6.35 2.83-8.393-5.598-9.56-5.598-9.56" fill="#111"/><path d="M160.252 139.63c-.955 2.701-15.58 40.843-62.218 24.835 0 0 9.617-3.03 12.779-14.097 1.521-5.325 14.954-49.67 14.954-49.67l.026.006 25.771-86.695c3.448-10.726 15.495-16.537 26.77-12.913l.942.303c11.275 3.625 17.68 15.367 14.232 26.093l-27.709 93.212s-4.592 16.226-5.547 18.926" fill="#76C3FC"/><path d="M97.968 139.697c2.648-6.213 4.58-13.367 6.6-19.715 4.457-14.008 8.365-28.259 12.655-42.318a5241.69 5241.69 0 0 0 5.375-17.703c3.936-12.246-2.069-25.231-13.344-28.856l-.941-.302c-11.246-3.615-23.647 3.396-27.619 15.581l-24.069 80.194c-3.314 10.312-11.13 17.82-20.223 20.732-.708.24-1.427.451-2.167.606-4.65 1.09-9.558.996-14.32-.535l-.942-.303a26.309 26.309 0 0 1-2.178-.834c4.98 7.159 15 14.799 26.726 18.646 13.04 4.277 28.035 2.379 39.27-5.501 7.306-5.125 11.817-11.812 15.177-19.692" fill="#328FF8"/><path d="M15.166 133.313l.94.303c11.276 3.624 23.323-2.186 26.771-12.912l12.758-41.725c3.448-10.727-2.956-22.469-14.232-26.093l-.941-.303c-11.276-3.624-23.323 2.186-26.77 12.913L.933 107.22c-3.448 10.727 2.956 22.468 14.232 26.093" fill="#1F65A6"/></g></g></svg>